<mxfile host="65bd71144e">
    <diagram id="JbVKIE25_rU5KXfLN-86" name="Page-1">
        <mxGraphModel dx="2260" dy="1032" grid="1" gridSize="10" guides="1" tooltips="1" connect="1" arrows="1" fold="1" page="1" pageScale="1" pageWidth="850" pageHeight="1100" math="0" shadow="0">
            <root>
                <mxCell id="0"/>
                <mxCell id="1" parent="0"/>
                <mxCell id="15" value="Homepage" style="rounded=0;whiteSpace=wrap;html=1;fontSize=35;" parent="1" vertex="1">
                    <mxGeometry x="2950" y="370" width="500" height="150" as="geometry"/>
                </mxCell>
                <mxCell id="21" value="" style="group" parent="1" vertex="1" connectable="0">
                    <mxGeometry x="2250" y="560" width="1920" height="1080" as="geometry"/>
                </mxCell>
                <mxCell id="22" value="" style="rounded=0;whiteSpace=wrap;html=1;imageWidth=1080;imageHeight=1920;movable=1;resizable=1;rotatable=1;deletable=1;editable=1;connectable=1;" parent="21" vertex="1">
                    <mxGeometry width="1920" height="1080" as="geometry"/>
                </mxCell>
                <mxCell id="23" value="&lt;font style=&quot;font-size: 35px;&quot;&gt;Logo&lt;/font&gt;" style="rounded=0;whiteSpace=wrap;html=1;fillColor=#f5f5f5;strokeColor=#666666;fontColor=#333333;" parent="21" vertex="1">
                    <mxGeometry x="760" width="400" height="100" as="geometry"/>
                </mxCell>
                <mxCell id="24" value="Footer" style="rounded=0;whiteSpace=wrap;html=1;fontSize=35;fillColor=#f5f5f5;fontColor=#333333;strokeColor=#666666;" parent="21" vertex="1">
                    <mxGeometry y="950" width="1915" height="130" as="geometry"/>
                </mxCell>
                <mxCell id="25" value="Watching /&lt;br&gt;Plan to watch?&lt;br&gt;&lt;br&gt;Idk" style="rounded=0;whiteSpace=wrap;html=1;fontSize=35;" parent="21" vertex="1">
                    <mxGeometry x="25" y="60" width="155" height="860" as="geometry"/>
                </mxCell>
                <mxCell id="26" value="Movies" style="rounded=0;whiteSpace=wrap;html=1;fontSize=35;" parent="21" vertex="1">
                    <mxGeometry x="205" y="60" width="120" height="50" as="geometry"/>
                </mxCell>
                <mxCell id="27" value="TV Shows" style="rounded=0;whiteSpace=wrap;html=1;fontSize=35;" parent="21" vertex="1">
                    <mxGeometry x="355" y="60" width="165" height="50" as="geometry"/>
                </mxCell>
                <mxCell id="28" value="Anime" style="rounded=0;whiteSpace=wrap;html=1;fontSize=35;" parent="21" vertex="1">
                    <mxGeometry x="545" y="60" width="165" height="50" as="geometry"/>
                </mxCell>
                <mxCell id="29" value="Watching (carousel)" style="rounded=0;whiteSpace=wrap;html=1;fontSize=35;" parent="21" vertex="1">
                    <mxGeometry x="480" y="190" width="940" height="320" as="geometry"/>
                </mxCell>
                <mxCell id="30" value="Planning to watch" style="rounded=0;whiteSpace=wrap;html=1;fontSize=35;" parent="21" vertex="1">
                    <mxGeometry x="480" y="590" width="940" height="320" as="geometry"/>
                </mxCell>
                <mxCell id="31" value="Movie" style="rounded=0;whiteSpace=wrap;html=1;fontSize=35;" parent="21" vertex="1">
                    <mxGeometry x="500" y="210" width="150" height="230" as="geometry"/>
                </mxCell>
                <mxCell id="34" value="&lt;font style=&quot;font-size: 36px;&quot;&gt;Search bar&lt;/font&gt;" style="rounded=0;whiteSpace=wrap;html=1;fontSize=25;" parent="21" vertex="1">
                    <mxGeometry x="1260" y="20" width="340" height="60" as="geometry"/>
                </mxCell>
                <mxCell id="32" style="edgeStyle=none;html=1;fontSize=35;entryX=0.5;entryY=1;entryDx=0;entryDy=0;" parent="1" source="31" target="33" edge="1">
                    <mxGeometry relative="1" as="geometry">
                        <mxPoint x="2640" y="260" as="targetPoint"/>
                    </mxGeometry>
                </mxCell>
                <mxCell id="33" value="Each movie can have small buttons (e.g. button to change status to &quot;watching&quot; and &quot;watched&quot;" style="rounded=0;whiteSpace=wrap;html=1;fontSize=25;" parent="1" vertex="1">
                    <mxGeometry x="2450" y="110" width="430" height="210" as="geometry"/>
                </mxCell>
                <mxCell id="44" value="" style="group" parent="1" vertex="1" connectable="0">
                    <mxGeometry x="315" y="330" width="1920" height="1310" as="geometry"/>
                </mxCell>
                <mxCell id="5" value="" style="group" parent="44" vertex="1" connectable="0">
                    <mxGeometry y="230" width="1920" height="1080" as="geometry"/>
                </mxCell>
                <mxCell id="2" value="" style="rounded=0;whiteSpace=wrap;html=1;imageWidth=1080;imageHeight=1920;movable=1;resizable=1;rotatable=1;deletable=1;editable=1;connectable=1;" parent="5" vertex="1">
                    <mxGeometry width="1920" height="1080" as="geometry"/>
                </mxCell>
                <mxCell id="3" value="&lt;font style=&quot;font-size: 35px;&quot;&gt;Logo&lt;/font&gt;" style="rounded=0;whiteSpace=wrap;html=1;fillColor=#f5f5f5;strokeColor=#666666;fontColor=#333333;" parent="5" vertex="1">
                    <mxGeometry x="760" width="400" height="100" as="geometry"/>
                </mxCell>
                <mxCell id="4" value="Footer" style="rounded=0;whiteSpace=wrap;html=1;fontSize=35;fillColor=#f5f5f5;fontColor=#333333;strokeColor=#666666;" parent="5" vertex="1">
                    <mxGeometry y="950" width="1915" height="130" as="geometry"/>
                </mxCell>
                <mxCell id="17" value="Watching /&lt;br&gt;Plan to watch?" style="rounded=0;whiteSpace=wrap;html=1;fontSize=35;" parent="5" vertex="1">
                    <mxGeometry x="25" y="60" width="155" height="860" as="geometry"/>
                </mxCell>
                <mxCell id="18" value="Movies" style="rounded=0;whiteSpace=wrap;html=1;fontSize=35;" parent="5" vertex="1">
                    <mxGeometry x="205" y="60" width="120" height="50" as="geometry"/>
                </mxCell>
                <mxCell id="19" value="TV Shows" style="rounded=0;whiteSpace=wrap;html=1;fontSize=35;" parent="5" vertex="1">
                    <mxGeometry x="355" y="60" width="165" height="50" as="geometry"/>
                </mxCell>
                <mxCell id="20" value="Anime" style="rounded=0;whiteSpace=wrap;html=1;fontSize=35;" parent="5" vertex="1">
                    <mxGeometry x="545" y="60" width="165" height="50" as="geometry"/>
                </mxCell>
                <mxCell id="55" value="&lt;font style=&quot;font-size: 36px;&quot;&gt;Search bar&lt;/font&gt;" style="rounded=0;whiteSpace=wrap;html=1;fontSize=25;" parent="5" vertex="1">
                    <mxGeometry x="1295" y="20" width="340" height="60" as="geometry"/>
                </mxCell>
                <mxCell id="14" value="Default Template" style="rounded=0;whiteSpace=wrap;html=1;fontSize=35;" parent="44" vertex="1">
                    <mxGeometry x="665" width="590" height="200" as="geometry"/>
                </mxCell>
                <mxCell id="45" value="" style="group" parent="1" vertex="1" connectable="0">
                    <mxGeometry x="315" y="1680" width="1920" height="1310" as="geometry"/>
                </mxCell>
                <mxCell id="46" value="" style="group" parent="45" vertex="1" connectable="0">
                    <mxGeometry y="230" width="1920" height="1080" as="geometry"/>
                </mxCell>
                <mxCell id="47" value="" style="rounded=0;whiteSpace=wrap;html=1;imageWidth=1080;imageHeight=1920;movable=1;resizable=1;rotatable=1;deletable=1;editable=1;connectable=1;" parent="46" vertex="1">
                    <mxGeometry width="1920" height="1080" as="geometry"/>
                </mxCell>
                <mxCell id="48" value="&lt;font style=&quot;font-size: 35px;&quot;&gt;Logo&lt;/font&gt;" style="rounded=0;whiteSpace=wrap;html=1;fillColor=#f5f5f5;strokeColor=#666666;fontColor=#333333;" parent="46" vertex="1">
                    <mxGeometry x="760" width="400" height="100" as="geometry"/>
                </mxCell>
                <mxCell id="49" value="Footer" style="rounded=0;whiteSpace=wrap;html=1;fontSize=35;fillColor=#f5f5f5;fontColor=#333333;strokeColor=#666666;" parent="46" vertex="1">
                    <mxGeometry y="950" width="1915" height="130" as="geometry"/>
                </mxCell>
                <mxCell id="50" value="Watching /&lt;br&gt;Plan to watch?" style="rounded=0;whiteSpace=wrap;html=1;fontSize=35;" parent="46" vertex="1">
                    <mxGeometry x="25" y="60" width="155" height="860" as="geometry"/>
                </mxCell>
                <mxCell id="51" value="Movies" style="rounded=0;whiteSpace=wrap;html=1;fontSize=35;" parent="46" vertex="1">
                    <mxGeometry x="205" y="60" width="120" height="50" as="geometry"/>
                </mxCell>
                <mxCell id="52" value="TV Shows" style="rounded=0;whiteSpace=wrap;html=1;fontSize=35;" parent="46" vertex="1">
                    <mxGeometry x="355" y="60" width="165" height="50" as="geometry"/>
                </mxCell>
                <mxCell id="53" value="Anime" style="rounded=0;whiteSpace=wrap;html=1;fontSize=35;" parent="46" vertex="1">
                    <mxGeometry x="545" y="60" width="165" height="50" as="geometry"/>
                </mxCell>
                <mxCell id="56" value="Movie" style="rounded=0;whiteSpace=wrap;html=1;fontSize=36;" parent="46" vertex="1">
                    <mxGeometry x="225" y="220" width="185" height="290" as="geometry"/>
                </mxCell>
                <mxCell id="61" value="Movie" style="rounded=0;whiteSpace=wrap;html=1;fontSize=36;" parent="46" vertex="1">
                    <mxGeometry x="465" y="220" width="185" height="290" as="geometry"/>
                </mxCell>
                <mxCell id="62" value="Movie" style="rounded=0;whiteSpace=wrap;html=1;fontSize=36;" parent="46" vertex="1">
                    <mxGeometry x="705" y="220" width="185" height="290" as="geometry"/>
                </mxCell>
                <mxCell id="63" value="Movie" style="rounded=0;whiteSpace=wrap;html=1;fontSize=36;" parent="46" vertex="1">
                    <mxGeometry x="945" y="220" width="185" height="290" as="geometry"/>
                </mxCell>
                <mxCell id="65" value="Search bar" style="rounded=0;whiteSpace=wrap;html=1;fontSize=36;" parent="46" vertex="1">
                    <mxGeometry x="1195" y="20" width="285" height="60" as="geometry"/>
                </mxCell>
                <mxCell id="66" value="&lt;font style=&quot;font-size: 32px;&quot;&gt;Add new&lt;/font&gt;" style="rounded=0;whiteSpace=wrap;html=1;fontSize=36;" parent="46" vertex="1">
                    <mxGeometry x="1655" y="120" width="175" height="80" as="geometry"/>
                </mxCell>
                <mxCell id="54" value="Movies/TV/Anime Page" style="rounded=0;whiteSpace=wrap;html=1;fontSize=35;" parent="45" vertex="1">
                    <mxGeometry x="665" width="590" height="200" as="geometry"/>
                </mxCell>
                <mxCell id="83" value="" style="group" parent="1" vertex="1" connectable="0">
                    <mxGeometry x="2250" y="1690" width="1920" height="1310" as="geometry"/>
                </mxCell>
                <mxCell id="84" value="" style="group" parent="83" vertex="1" connectable="0">
                    <mxGeometry y="230" width="1920" height="1080" as="geometry"/>
                </mxCell>
                <mxCell id="85" value="" style="rounded=0;whiteSpace=wrap;html=1;imageWidth=1080;imageHeight=1920;movable=1;resizable=1;rotatable=1;deletable=1;editable=1;connectable=1;" parent="84" vertex="1">
                    <mxGeometry width="1920" height="1080" as="geometry"/>
                </mxCell>
                <mxCell id="86" value="&lt;font style=&quot;font-size: 35px;&quot;&gt;Logo&lt;/font&gt;" style="rounded=0;whiteSpace=wrap;html=1;fillColor=#f5f5f5;strokeColor=#666666;fontColor=#333333;" parent="84" vertex="1">
                    <mxGeometry x="760" width="400" height="100" as="geometry"/>
                </mxCell>
                <mxCell id="87" value="Footer" style="rounded=0;whiteSpace=wrap;html=1;fontSize=35;fillColor=#f5f5f5;fontColor=#333333;strokeColor=#666666;" parent="84" vertex="1">
                    <mxGeometry y="950" width="1915" height="130" as="geometry"/>
                </mxCell>
                <mxCell id="88" value="Watching /&lt;br&gt;Plan to watch?" style="rounded=0;whiteSpace=wrap;html=1;fontSize=35;" parent="84" vertex="1">
                    <mxGeometry x="25" y="60" width="155" height="860" as="geometry"/>
                </mxCell>
                <mxCell id="89" value="Movies" style="rounded=0;whiteSpace=wrap;html=1;fontSize=35;" parent="84" vertex="1">
                    <mxGeometry x="205" y="60" width="120" height="50" as="geometry"/>
                </mxCell>
                <mxCell id="90" value="TV Shows" style="rounded=0;whiteSpace=wrap;html=1;fontSize=35;" parent="84" vertex="1">
                    <mxGeometry x="355" y="60" width="165" height="50" as="geometry"/>
                </mxCell>
                <mxCell id="91" value="Anime" style="rounded=0;whiteSpace=wrap;html=1;fontSize=35;" parent="84" vertex="1">
                    <mxGeometry x="545" y="60" width="165" height="50" as="geometry"/>
                </mxCell>
                <mxCell id="92" value="&lt;font style=&quot;font-size: 36px;&quot;&gt;Search bar&lt;/font&gt;" style="rounded=0;whiteSpace=wrap;html=1;fontSize=25;" parent="84" vertex="1">
                    <mxGeometry x="1295" y="20" width="340" height="60" as="geometry"/>
                </mxCell>
                <mxCell id="94" value="Find new" style="rounded=0;whiteSpace=wrap;html=1;fontSize=32;" parent="84" vertex="1">
                    <mxGeometry x="470" y="250" width="830" height="80" as="geometry"/>
                </mxCell>
                <mxCell id="95" value="Type button" style="rounded=0;whiteSpace=wrap;html=1;fontSize=32;" parent="84" vertex="1">
                    <mxGeometry x="1300" y="250" width="200" height="80" as="geometry"/>
                </mxCell>
                <mxCell id="96" value="Results" style="rounded=0;whiteSpace=wrap;html=1;fontSize=32;" parent="84" vertex="1">
                    <mxGeometry x="380" y="420" width="1210" height="360" as="geometry"/>
                </mxCell>
                <mxCell id="93" value="Add new X Page" style="rounded=0;whiteSpace=wrap;html=1;fontSize=35;" parent="83" vertex="1">
                    <mxGeometry x="665" width="590" height="200" as="geometry"/>
                </mxCell>
                <mxCell id="97" value="Movie" style="rounded=0;whiteSpace=wrap;html=1;fontSize=28;" vertex="1" parent="1">
                    <mxGeometry x="30" y="210" width="120" height="60" as="geometry"/>
                </mxCell>
                <mxCell id="98" value="Anime" style="rounded=0;whiteSpace=wrap;html=1;fontSize=28;" vertex="1" parent="1">
                    <mxGeometry x="30" y="40" width="120" height="60" as="geometry"/>
                </mxCell>
                <mxCell id="99" value="Tv" style="rounded=0;whiteSpace=wrap;html=1;fontSize=28;" vertex="1" parent="1">
                    <mxGeometry x="30" y="125" width="120" height="60" as="geometry"/>
                </mxCell>
                <mxCell id="100" value="Person" style="rounded=0;whiteSpace=wrap;html=1;fontSize=28;" vertex="1" parent="1">
                    <mxGeometry x="430" y="90" width="120" height="60" as="geometry"/>
                </mxCell>
                <mxCell id="101" value="" style="edgeStyle=entityRelationEdgeStyle;fontSize=12;html=1;endArrow=ERoneToMany;" edge="1" parent="1">
                    <mxGeometry width="100" height="100" relative="1" as="geometry">
                        <mxPoint x="215" y="185" as="sourcePoint"/>
                        <mxPoint x="315" y="130" as="targetPoint"/>
                    </mxGeometry>
                </mxCell>
            </root>
        </mxGraphModel>
    </diagram>
</mxfile>